<mxfile host="app.diagrams.net" agent="Mozilla/5.0 (Windows NT 10.0; Win64; x64) AppleWebKit/537.36 (KHTML, like Gecko) Chrome/132.0.0.0 Safari/537.36" version="26.0.10">
  <diagram name="PÃ¡gina-1" id="dx8DmzmRuRMdMXZH5pXV">
    <mxGraphModel dx="1450" dy="922" grid="1" gridSize="10" guides="1" tooltips="1" connect="1" arrows="1" fold="1" page="0" pageScale="1" pageWidth="827" pageHeight="1169" math="0" shadow="0">
      <root>
        <mxCell id="0" />
        <mxCell id="1" parent="0" />
        <mxCell id="AySGl4q65i81pyB-RRSA-20" style="edgeStyle=none;curved=1;rounded=0;orthogonalLoop=1;jettySize=auto;html=1;entryX=0;entryY=0.5;entryDx=0;entryDy=0;fontSize=12;strokeColor=default;endArrow=ERoneToMany;endFill=0;startArrow=ERone;startFill=0;" parent="1" source="AySGl4q65i81pyB-RRSA-1" target="AySGl4q65i81pyB-RRSA-13" edge="1">
          <mxGeometry relative="1" as="geometry" />
        </mxCell>
        <mxCell id="AySGl4q65i81pyB-RRSA-1" value="hospital" style="whiteSpace=wrap;html=1;align=center;" parent="1" vertex="1">
          <mxGeometry x="-170" y="-240" width="120" height="40" as="geometry" />
        </mxCell>
        <mxCell id="AySGl4q65i81pyB-RRSA-21" style="edgeStyle=none;curved=1;rounded=0;orthogonalLoop=1;jettySize=auto;html=1;fontSize=12;startSize=8;endSize=8;endArrow=none;startFill=0;" parent="1" source="AySGl4q65i81pyB-RRSA-2" target="AySGl4q65i81pyB-RRSA-1" edge="1">
          <mxGeometry relative="1" as="geometry" />
        </mxCell>
        <mxCell id="AySGl4q65i81pyB-RRSA-2" value="hospital_id" style="ellipse;whiteSpace=wrap;html=1;align=center;fontStyle=4;" parent="1" vertex="1">
          <mxGeometry x="-230" y="-400" width="100" height="40" as="geometry" />
        </mxCell>
        <mxCell id="AySGl4q65i81pyB-RRSA-23" style="edgeStyle=none;shape=connector;curved=1;rounded=0;orthogonalLoop=1;jettySize=auto;html=1;strokeColor=default;align=center;verticalAlign=middle;fontFamily=Helvetica;fontSize=12;fontColor=default;labelBackgroundColor=default;startFill=0;startSize=8;endArrow=none;endSize=8;" parent="1" source="AySGl4q65i81pyB-RRSA-3" target="AySGl4q65i81pyB-RRSA-1" edge="1">
          <mxGeometry relative="1" as="geometry" />
        </mxCell>
        <mxCell id="AySGl4q65i81pyB-RRSA-3" value="name" style="ellipse;whiteSpace=wrap;html=1;align=center;" parent="1" vertex="1">
          <mxGeometry x="-290" y="-360" width="100" height="40" as="geometry" />
        </mxCell>
        <mxCell id="AySGl4q65i81pyB-RRSA-24" style="edgeStyle=none;shape=connector;curved=1;rounded=0;orthogonalLoop=1;jettySize=auto;html=1;strokeColor=default;align=center;verticalAlign=middle;fontFamily=Helvetica;fontSize=12;fontColor=default;labelBackgroundColor=default;startFill=0;startSize=8;endArrow=none;endSize=8;" parent="1" source="AySGl4q65i81pyB-RRSA-4" target="AySGl4q65i81pyB-RRSA-1" edge="1">
          <mxGeometry relative="1" as="geometry" />
        </mxCell>
        <mxCell id="AySGl4q65i81pyB-RRSA-4" value="email" style="ellipse;whiteSpace=wrap;html=1;align=center;" parent="1" vertex="1">
          <mxGeometry x="-320" y="-320" width="100" height="40" as="geometry" />
        </mxCell>
        <mxCell id="AySGl4q65i81pyB-RRSA-25" style="edgeStyle=none;shape=connector;curved=1;rounded=0;orthogonalLoop=1;jettySize=auto;html=1;strokeColor=default;align=center;verticalAlign=middle;fontFamily=Helvetica;fontSize=12;fontColor=default;labelBackgroundColor=default;startFill=0;startSize=8;endArrow=none;endSize=8;" parent="1" source="AySGl4q65i81pyB-RRSA-5" target="AySGl4q65i81pyB-RRSA-1" edge="1">
          <mxGeometry relative="1" as="geometry" />
        </mxCell>
        <mxCell id="AySGl4q65i81pyB-RRSA-5" value="password" style="ellipse;whiteSpace=wrap;html=1;align=center;" parent="1" vertex="1">
          <mxGeometry x="-340" y="-280" width="100" height="40" as="geometry" />
        </mxCell>
        <mxCell id="AySGl4q65i81pyB-RRSA-27" style="edgeStyle=none;shape=connector;curved=1;rounded=0;orthogonalLoop=1;jettySize=auto;html=1;strokeColor=default;align=center;verticalAlign=middle;fontFamily=Helvetica;fontSize=12;fontColor=default;labelBackgroundColor=default;startFill=0;startSize=8;endArrow=none;endSize=8;" parent="1" source="AySGl4q65i81pyB-RRSA-6" target="AySGl4q65i81pyB-RRSA-1" edge="1">
          <mxGeometry relative="1" as="geometry" />
        </mxCell>
        <mxCell id="AySGl4q65i81pyB-RRSA-6" value="city" style="ellipse;whiteSpace=wrap;html=1;align=center;" parent="1" vertex="1">
          <mxGeometry x="-340" y="-200" width="100" height="40" as="geometry" />
        </mxCell>
        <mxCell id="AySGl4q65i81pyB-RRSA-28" style="edgeStyle=none;shape=connector;curved=1;rounded=0;orthogonalLoop=1;jettySize=auto;html=1;strokeColor=default;align=center;verticalAlign=middle;fontFamily=Helvetica;fontSize=12;fontColor=default;labelBackgroundColor=default;startFill=0;startSize=8;endArrow=none;endSize=8;" parent="1" source="AySGl4q65i81pyB-RRSA-7" target="AySGl4q65i81pyB-RRSA-1" edge="1">
          <mxGeometry relative="1" as="geometry" />
        </mxCell>
        <mxCell id="AySGl4q65i81pyB-RRSA-7" value="direction" style="ellipse;whiteSpace=wrap;html=1;align=center;" parent="1" vertex="1">
          <mxGeometry x="-320" y="-160" width="100" height="40" as="geometry" />
        </mxCell>
        <mxCell id="AySGl4q65i81pyB-RRSA-26" style="edgeStyle=none;shape=connector;curved=1;rounded=0;orthogonalLoop=1;jettySize=auto;html=1;strokeColor=default;align=center;verticalAlign=middle;fontFamily=Helvetica;fontSize=12;fontColor=default;labelBackgroundColor=default;startFill=0;startSize=8;endArrow=none;endSize=8;" parent="1" source="AySGl4q65i81pyB-RRSA-8" target="AySGl4q65i81pyB-RRSA-1" edge="1">
          <mxGeometry relative="1" as="geometry" />
        </mxCell>
        <mxCell id="AySGl4q65i81pyB-RRSA-8" value="phone" style="ellipse;whiteSpace=wrap;html=1;align=center;" parent="1" vertex="1">
          <mxGeometry x="-340" y="-240" width="100" height="40" as="geometry" />
        </mxCell>
        <mxCell id="AySGl4q65i81pyB-RRSA-29" style="edgeStyle=none;shape=connector;curved=1;rounded=0;orthogonalLoop=1;jettySize=auto;html=1;strokeColor=default;align=center;verticalAlign=middle;fontFamily=Helvetica;fontSize=12;fontColor=default;labelBackgroundColor=default;startFill=0;startSize=8;endArrow=none;endSize=8;" parent="1" source="AySGl4q65i81pyB-RRSA-9" target="AySGl4q65i81pyB-RRSA-1" edge="1">
          <mxGeometry relative="1" as="geometry" />
        </mxCell>
        <mxCell id="AySGl4q65i81pyB-RRSA-9" value="description" style="ellipse;whiteSpace=wrap;html=1;align=center;" parent="1" vertex="1">
          <mxGeometry x="-280" y="-120" width="100" height="40" as="geometry" />
        </mxCell>
        <mxCell id="AySGl4q65i81pyB-RRSA-30" style="edgeStyle=none;shape=connector;curved=1;rounded=0;orthogonalLoop=1;jettySize=auto;html=1;strokeColor=default;align=center;verticalAlign=middle;fontFamily=Helvetica;fontSize=12;fontColor=default;labelBackgroundColor=default;startFill=0;startSize=8;endArrow=none;endSize=8;" parent="1" source="AySGl4q65i81pyB-RRSA-10" target="AySGl4q65i81pyB-RRSA-1" edge="1">
          <mxGeometry relative="1" as="geometry" />
        </mxCell>
        <mxCell id="AySGl4q65i81pyB-RRSA-10" value="image" style="ellipse;whiteSpace=wrap;html=1;align=center;" parent="1" vertex="1">
          <mxGeometry x="-230" y="-80" width="100" height="40" as="geometry" />
        </mxCell>
        <mxCell id="AySGl4q65i81pyB-RRSA-13" value="doctor" style="whiteSpace=wrap;html=1;align=center;" parent="1" vertex="1">
          <mxGeometry x="60" y="-240" width="100" height="40" as="geometry" />
        </mxCell>
        <mxCell id="AySGl4q65i81pyB-RRSA-32" style="edgeStyle=none;shape=connector;curved=1;rounded=0;orthogonalLoop=1;jettySize=auto;html=1;strokeColor=default;align=center;verticalAlign=middle;fontFamily=Helvetica;fontSize=12;fontColor=default;labelBackgroundColor=default;startFill=0;startSize=8;endArrow=none;endSize=8;" parent="1" source="AySGl4q65i81pyB-RRSA-14" target="AySGl4q65i81pyB-RRSA-13" edge="1">
          <mxGeometry relative="1" as="geometry" />
        </mxCell>
        <mxCell id="AySGl4q65i81pyB-RRSA-14" value="name" style="ellipse;whiteSpace=wrap;html=1;align=center;" parent="1" vertex="1">
          <mxGeometry x="210" y="-320" width="100" height="40" as="geometry" />
        </mxCell>
        <mxCell id="AySGl4q65i81pyB-RRSA-33" style="edgeStyle=none;shape=connector;curved=1;rounded=0;orthogonalLoop=1;jettySize=auto;html=1;strokeColor=default;align=center;verticalAlign=middle;fontFamily=Helvetica;fontSize=12;fontColor=default;labelBackgroundColor=default;startFill=0;startSize=8;endArrow=none;endSize=8;" parent="1" source="AySGl4q65i81pyB-RRSA-15" target="AySGl4q65i81pyB-RRSA-13" edge="1">
          <mxGeometry relative="1" as="geometry" />
        </mxCell>
        <mxCell id="AySGl4q65i81pyB-RRSA-15" value="speciality" style="ellipse;whiteSpace=wrap;html=1;align=center;" parent="1" vertex="1">
          <mxGeometry x="240" y="-240" width="100" height="40" as="geometry" />
        </mxCell>
        <mxCell id="AySGl4q65i81pyB-RRSA-34" style="edgeStyle=none;shape=connector;curved=1;rounded=0;orthogonalLoop=1;jettySize=auto;html=1;strokeColor=default;align=center;verticalAlign=middle;fontFamily=Helvetica;fontSize=12;fontColor=default;labelBackgroundColor=default;startFill=0;startSize=8;endArrow=none;endSize=8;" parent="1" source="AySGl4q65i81pyB-RRSA-16" target="AySGl4q65i81pyB-RRSA-13" edge="1">
          <mxGeometry relative="1" as="geometry" />
        </mxCell>
        <mxCell id="AySGl4q65i81pyB-RRSA-16" value="university_degree" style="ellipse;whiteSpace=wrap;html=1;align=center;" parent="1" vertex="1">
          <mxGeometry x="240" y="-200" width="100" height="40" as="geometry" />
        </mxCell>
        <mxCell id="AySGl4q65i81pyB-RRSA-35" style="edgeStyle=none;shape=connector;curved=1;rounded=0;orthogonalLoop=1;jettySize=auto;html=1;strokeColor=default;align=center;verticalAlign=middle;fontFamily=Helvetica;fontSize=12;fontColor=default;labelBackgroundColor=default;startFill=0;startSize=8;endArrow=none;endSize=8;" parent="1" source="AySGl4q65i81pyB-RRSA-17" target="AySGl4q65i81pyB-RRSA-13" edge="1">
          <mxGeometry relative="1" as="geometry" />
        </mxCell>
        <mxCell id="AySGl4q65i81pyB-RRSA-17" value="description" style="ellipse;whiteSpace=wrap;html=1;align=center;" parent="1" vertex="1">
          <mxGeometry x="200" y="-160" width="100" height="40" as="geometry" />
        </mxCell>
        <mxCell id="AySGl4q65i81pyB-RRSA-36" style="edgeStyle=none;shape=connector;curved=1;rounded=0;orthogonalLoop=1;jettySize=auto;html=1;strokeColor=default;align=center;verticalAlign=middle;fontFamily=Helvetica;fontSize=12;fontColor=default;labelBackgroundColor=default;startFill=0;startSize=8;endArrow=none;endSize=8;" parent="1" source="AySGl4q65i81pyB-RRSA-18" target="AySGl4q65i81pyB-RRSA-13" edge="1">
          <mxGeometry relative="1" as="geometry" />
        </mxCell>
        <mxCell id="AySGl4q65i81pyB-RRSA-18" value="image" style="ellipse;whiteSpace=wrap;html=1;align=center;" parent="1" vertex="1">
          <mxGeometry x="140" y="-120" width="100" height="40" as="geometry" />
        </mxCell>
        <mxCell id="AySGl4q65i81pyB-RRSA-31" style="edgeStyle=none;shape=connector;curved=1;rounded=0;orthogonalLoop=1;jettySize=auto;html=1;strokeColor=default;align=center;verticalAlign=middle;fontFamily=Helvetica;fontSize=12;fontColor=default;labelBackgroundColor=default;startFill=0;startSize=8;endArrow=none;endSize=8;" parent="1" source="AySGl4q65i81pyB-RRSA-19" target="AySGl4q65i81pyB-RRSA-13" edge="1">
          <mxGeometry relative="1" as="geometry" />
        </mxCell>
        <mxCell id="AySGl4q65i81pyB-RRSA-19" value="doctor_id" style="ellipse;whiteSpace=wrap;html=1;align=center;fontStyle=4;" parent="1" vertex="1">
          <mxGeometry x="90" y="-400" width="100" height="40" as="geometry" />
        </mxCell>
        <mxCell id="AySGl4q65i81pyB-RRSA-38" style="edgeStyle=none;shape=connector;curved=1;rounded=0;orthogonalLoop=1;jettySize=auto;html=1;strokeColor=default;align=center;verticalAlign=middle;fontFamily=Helvetica;fontSize=12;fontColor=default;labelBackgroundColor=default;startFill=0;startSize=8;endArrow=none;endSize=8;" parent="1" target="AySGl4q65i81pyB-RRSA-13" edge="1">
          <mxGeometry relative="1" as="geometry">
            <mxPoint x="194.245566826811" y="-321.01875521302554" as="sourcePoint" />
          </mxGeometry>
        </mxCell>
        <mxCell id="AySGl4q65i81pyB-RRSA-40" style="edgeStyle=none;shape=connector;curved=1;rounded=0;orthogonalLoop=1;jettySize=auto;html=1;strokeColor=default;align=center;verticalAlign=middle;fontFamily=Helvetica;fontSize=12;fontColor=default;labelBackgroundColor=default;startFill=0;startSize=8;endArrow=none;endSize=8;" parent="1" source="AySGl4q65i81pyB-RRSA-39" target="AySGl4q65i81pyB-RRSA-13" edge="1">
          <mxGeometry relative="1" as="geometry" />
        </mxCell>
        <mxCell id="AySGl4q65i81pyB-RRSA-39" value="last_name" style="ellipse;whiteSpace=wrap;html=1;align=center;" parent="1" vertex="1">
          <mxGeometry x="240" y="-280" width="100" height="40" as="geometry" />
        </mxCell>
        <mxCell id="AySGl4q65i81pyB-RRSA-41" value="hospital_id" style="ellipse;whiteSpace=wrap;html=1;align=center;" parent="1" vertex="1">
          <mxGeometry x="160" y="-360" width="100" height="40" as="geometry" />
        </mxCell>
        <mxCell id="72tuW98hYVkd9BMMxgTb-5" style="edgeStyle=none;shape=connector;curved=1;rounded=0;orthogonalLoop=1;jettySize=auto;html=1;strokeColor=default;align=center;verticalAlign=middle;fontFamily=Helvetica;fontSize=12;fontColor=default;labelBackgroundColor=default;startFill=0;startSize=8;endArrow=none;endSize=8;" edge="1" parent="1" source="72tuW98hYVkd9BMMxgTb-1" target="AySGl4q65i81pyB-RRSA-13">
          <mxGeometry relative="1" as="geometry" />
        </mxCell>
        <mxCell id="72tuW98hYVkd9BMMxgTb-1" value="logic_delete" style="ellipse;whiteSpace=wrap;html=1;align=center;" vertex="1" parent="1">
          <mxGeometry x="70" y="-80" width="100" height="40" as="geometry" />
        </mxCell>
        <mxCell id="72tuW98hYVkd9BMMxgTb-4" style="edgeStyle=none;shape=connector;curved=1;rounded=0;orthogonalLoop=1;jettySize=auto;html=1;strokeColor=default;align=center;verticalAlign=middle;fontFamily=Helvetica;fontSize=12;fontColor=default;labelBackgroundColor=default;startFill=0;startSize=8;endArrow=none;endSize=8;" edge="1" parent="1" source="72tuW98hYVkd9BMMxgTb-2" target="AySGl4q65i81pyB-RRSA-1">
          <mxGeometry relative="1" as="geometry" />
        </mxCell>
        <mxCell id="72tuW98hYVkd9BMMxgTb-2" value="logic_delete" style="ellipse;whiteSpace=wrap;html=1;align=center;" vertex="1" parent="1">
          <mxGeometry x="-160" y="-40" width="100" height="40" as="geometry" />
        </mxCell>
      </root>
    </mxGraphModel>
  </diagram>
</mxfile>
